<?xml version="1.0" encoding="UTF-8"?>
<svg version="1.1" xmlns="http://www.w3.org/2000/svg" width="500" height="500">
<path d="M0 0 C3.81750357 1.83349924 3.81750357 1.83349924 7.8984375 0.99609375 C9.27406604 2.28574551 10.60610143 3.62298668 11.8984375 4.99609375 C11.8984375 5.65609375 11.8984375 6.31609375 11.8984375 6.99609375 C14.66449389 8.71286928 14.66449389 8.71286928 17.8984375 9.99609375 C21.16451166 8.82861549 23.94645408 6.68564265 26.82226562 4.77124023 C41.03786406 -4.66844926 41.03786406 -4.66844926 49.8984375 -4.00390625 C48.54305321 1.68356073 45.85119477 4.63150245 41.7734375 8.55859375 C41.19247314 9.13649658 40.61150879 9.71439941 40.01293945 10.30981445 C36.89425002 13.34106804 34.0076115 15.7262771 30.0859375 17.68359375 C26.67747111 19.6013919 26.67747111 19.6013919 26.41796875 22.50390625 C26.40019766 25.0558343 26.54538441 27.47078345 26.8984375 29.99609375 C27.8884375 29.66609375 28.8784375 29.33609375 29.8984375 28.99609375 C30.2284375 31.30609375 30.5584375 33.61609375 30.8984375 35.99609375 C29.9084375 36.32609375 28.9184375 36.65609375 27.8984375 36.99609375 C28.2284375 37.98609375 28.5584375 38.97609375 28.8984375 39.99609375 C30.67927199 55.64420895 30.67927199 55.64420895 27.40625 61.8046875 C23.20612981 65.99609375 23.20612981 65.99609375 19.8984375 65.99609375 C19.72453491 64.78493896 19.72453491 64.78493896 19.54711914 63.54931641 C19.02196596 59.90604984 18.49152046 56.26357334 17.9609375 52.62109375 C17.68733398 50.71457031 17.68733398 50.71457031 17.40820312 48.76953125 C17.14233398 46.95195312 17.14233398 46.95195312 16.87109375 45.09765625 C16.70875244 43.97697754 16.54641113 42.85629883 16.37915039 41.70166016 C16.03806216 39.03880122 16.03806216 39.03880122 14.8984375 36.99609375 C14.53701795 34.66694552 14.20144225 32.33355897 13.8984375 29.99609375 C13.2384375 29.99609375 12.5784375 29.99609375 11.8984375 29.99609375 C11.75744629 30.76276367 11.61645508 31.52943359 11.47119141 32.31933594 C10.82818302 35.79611021 10.17591801 39.2710852 9.5234375 42.74609375 C9.30171875 43.95265625 9.08 45.15921875 8.8515625 46.40234375 C8.63242187 47.5625 8.41328125 48.72265625 8.1875 49.91796875 C7.98850098 50.9862793 7.78950195 52.05458984 7.58447266 53.15527344 C6.96539592 55.71882394 6.19355979 57.71398235 4.8984375 59.99609375 C4.22264648 60.01591309 3.54685547 60.03573242 2.85058594 60.05615234 C-0.21718294 60.15152613 -3.28428248 60.2611554 -6.3515625 60.37109375 C-7.41503906 60.40203125 -8.47851562 60.43296875 -9.57421875 60.46484375 C-10.59902344 60.50351563 -11.62382812 60.5421875 -12.6796875 60.58203125 C-13.62231445 60.61345215 -14.56494141 60.64487305 -15.53613281 60.67724609 C-18.14991679 61.00210352 -19.84509284 61.67285537 -22.1015625 62.99609375 C-22.1015625 62.00609375 -22.1015625 61.01609375 -22.1015625 59.99609375 C-26.3915625 59.99609375 -30.6815625 59.99609375 -35.1015625 59.99609375 C-35.1015625 59.33609375 -35.1015625 58.67609375 -35.1015625 57.99609375 C-36.99816524 59.41173982 -38.89385767 60.8285783 -40.7890625 62.24609375 C-42.37267578 63.42945313 -42.37267578 63.42945313 -43.98828125 64.63671875 C-45.01566406 65.4153125 -46.04304688 66.19390625 -47.1015625 66.99609375 C-48.50341797 67.97835937 -48.50341797 67.97835937 -49.93359375 68.98046875 C-52.62720019 71.09096584 -52.62720019 71.09096584 -53.1015625 75.99609375 C-28.3515625 76.49109375 -28.3515625 76.49109375 -3.1015625 76.99609375 C-6.40549539 80.30002664 -9.37058039 82.72153413 -13.1640625 85.37109375 C-19.24192319 89.64935979 -25.24744633 94.01840501 -31.2265625 98.43359375 C-32.04390869 99.03671387 -32.86125488 99.63983398 -33.70336914 100.26123047 C-37.96610781 103.37976201 -37.96610781 103.37976201 -42.09814453 106.66552734 C-44.38243171 108.18263253 -45.50366921 108.35059132 -48.2109375 108.2890625 C-48.96503906 108.27939453 -49.71914062 108.26972656 -50.49609375 108.25976562 C-51.27339844 108.23462891 -52.05070312 108.20949219 -52.8515625 108.18359375 C-53.64433594 108.17005859 -54.43710938 108.15652344 -55.25390625 108.14257812 C-57.20341814 108.10734598 -59.15257876 108.05354196 -61.1015625 107.99609375 C-61.21113281 109.22005859 -61.32070312 110.44402344 -61.43359375 111.70507812 C-62.11269029 117.78435505 -63.44968687 123.68968119 -64.7890625 129.65234375 C-65.05162842 130.83582397 -65.31419434 132.0193042 -65.5847168 133.23864746 C-66.13717909 135.72341436 -66.69198796 138.20766057 -67.24902344 140.69140625 C-68.10474901 144.51031441 -68.95131842 148.33117265 -69.796875 152.15234375 C-70.33539693 154.56913093 -70.87444073 156.9858019 -71.4140625 159.40234375 C-71.66824951 160.55013306 -71.92243652 161.69792236 -72.18432617 162.88049316 C-72.53974487 164.45848694 -72.53974487 164.45848694 -72.90234375 166.06835938 C-73.11028564 166.99829712 -73.31822754 167.92823486 -73.5324707 168.88635254 C-74.1015625 170.99609375 -74.1015625 170.99609375 -75.1015625 171.99609375 C-77.7678228 172.08464536 -80.40803364 172.11134048 -83.07421875 172.09375 C-83.87186142 172.09233505 -84.66950409 172.0909201 -85.49131775 172.08946228 C-88.04893685 172.08384691 -90.60646968 172.07129187 -93.1640625 172.05859375 C-94.89387895 172.05358073 -96.62369676 172.04901748 -98.35351562 172.04492188 C-102.60289803 172.0338725 -106.85221562 172.01659761 -111.1015625 171.99609375 C-110.48557986 173.75830534 -109.86325693 175.51830149 -109.23828125 177.27734375 C-108.89240967 178.25767578 -108.54653809 179.23800781 -108.19018555 180.24804688 C-106.41632165 184.72586971 -104.5248541 187.87934917 -99.95703125 189.984375 C-96.08941074 191.33772148 -92.1495297 192.34319581 -88.1015625 192.99609375 C-88.1015625 193.32609375 -88.1015625 193.65609375 -88.1015625 193.99609375 C-95.61922873 194.4120302 -102.02301307 194.33755593 -108.046875 189.40234375 C-114.74720303 182.5618415 -116.19696205 174.69333113 -116.5390625 165.37109375 C-116.40191958 159.92115318 -115.66572055 154.79747994 -114.4765625 149.49609375 C-114.33661865 148.85720215 -114.1966748 148.21831055 -114.05249023 147.56005859 C-112.94288081 143.09840038 -111.25297813 139.13401842 -109.30883789 134.97070312 C-105.30133503 125.92219977 -103.38372684 116.44786737 -101.32421875 106.80859375 C-100.90532196 104.89221664 -100.48549971 102.97604161 -100.06480408 101.06005859 C-99.19302145 97.0749612 -98.33098952 93.08792236 -97.47631836 89.09912109 C-96.38170559 83.99341886 -95.26455063 78.89296363 -94.14043522 73.79368591 C-93.2734813 69.85092926 -92.41731687 65.90589146 -91.56451225 61.96005249 C-91.15651529 60.07755813 -90.74543165 58.19572994 -90.33116341 56.31460571 C-89.75560239 53.69239918 -89.19439993 51.06751679 -88.63696289 48.44140625 C-88.46512985 47.67145828 -88.29329681 46.90151031 -88.11625671 46.10823059 C-87.06453269 41.05367052 -86.55329036 36.58506543 -89.28491211 32.01733398 C-89.76968018 31.45216064 -90.25444824 30.8869873 -90.75390625 30.3046875 C-91.28306641 29.66982422 -91.81222656 29.03496094 -92.35742188 28.38085938 C-92.91236328 27.73826172 -93.46730469 27.09566406 -94.0390625 26.43359375 C-95.13715831 25.1454182 -96.22978631 23.85255797 -97.31640625 22.5546875 C-97.80230225 21.99064209 -98.28819824 21.42659668 -98.78881836 20.84545898 C-100.1015625 18.99609375 -100.1015625 18.99609375 -102.1015625 13.99609375 C-53.0965625 13.50109375 -53.0965625 13.50109375 -3.1015625 12.99609375 C-10.5963471 7.99718143 -10.5963471 7.99718143 -18.1640625 3.12109375 C-19.57365234 2.22777344 -19.57365234 2.22777344 -21.01171875 1.31640625 C-22.04619141 0.66285156 -22.04619141 0.66285156 -23.1015625 -0.00390625 C-15.67700605 -7.59530666 -8.83819364 -4.19534508 0 0 Z M-47.1015625 44.99609375 C-47.7709348 47.78713718 -48.43717342 50.57886398 -49.1015625 53.37109375 C-49.29234375 54.16515625 -49.483125 54.95921875 -49.6796875 55.77734375 C-49.86015625 56.53789062 -50.040625 57.2984375 -50.2265625 58.08203125 C-50.39414063 58.78376465 -50.56171875 59.48549805 -50.734375 60.20849609 C-51.16863166 62.01845668 -51.16863166 62.01845668 -51.1015625 63.99609375 C-40.28582806 60.22536387 -40.28582806 60.22536387 -32.87890625 52.3125 C-32.2339031 49.27724993 -32.2339031 49.27724993 -32.1015625 44.99609375 C-37.0515625 44.99609375 -42.0015625 44.99609375 -47.1015625 44.99609375 Z " fill="#1890C6" transform="translate(262.1015625,143.00390625)"/>
<path d="M0 0 C1 3.875 1 3.875 1 5 C25.75 5.495 25.75 5.495 51 6 C47.69606711 9.30393289 44.73098211 11.72544038 40.9375 14.375 C34.85963931 18.65326604 28.85411617 23.02231126 22.875 27.4375 C22.05765381 28.04062012 21.24030762 28.64374023 20.39819336 29.26513672 C16.13545469 32.38366826 16.13545469 32.38366826 12.00341797 35.66943359 C9.71913079 37.18653878 8.59789329 37.35449757 5.890625 37.29296875 C5.13652344 37.28330078 4.38242188 37.27363281 3.60546875 37.26367188 C2.82816406 37.23853516 2.05085938 37.21339844 1.25 37.1875 C0.45722656 37.17396484 -0.33554688 37.16042969 -1.15234375 37.14648438 C-3.10185564 37.11125223 -5.05101626 37.05744821 -7 37 C-7.10957031 38.22396484 -7.21914062 39.44792969 -7.33203125 40.70898438 C-8.01112779 46.7882613 -9.34812437 52.69358744 -10.6875 58.65625 C-10.95006592 59.83973022 -11.21263184 61.02321045 -11.4831543 62.24255371 C-12.03561659 64.72732061 -12.59042546 67.21156682 -13.14746094 69.6953125 C-14.00318651 73.51422066 -14.84975592 77.3350789 -15.6953125 81.15625 C-16.23383443 83.57303718 -16.77287823 85.98970815 -17.3125 88.40625 C-17.69378052 90.12793396 -17.69378052 90.12793396 -18.08276367 91.88439941 C-18.31970947 92.93639526 -18.55665527 93.98839111 -18.80078125 95.07226562 C-19.00872314 96.00220337 -19.21666504 96.93214111 -19.4309082 97.89025879 C-20 100 -20 100 -21 101 C-23.6662603 101.08855161 -26.30647114 101.11524673 -28.97265625 101.09765625 C-29.77029892 101.0962413 -30.56794159 101.09482635 -31.38975525 101.09336853 C-33.94737435 101.08775316 -36.50490718 101.07519812 -39.0625 101.0625 C-40.79231645 101.05748698 -42.52213426 101.05292373 -44.25195312 101.04882812 C-48.50133553 101.03777875 -52.75065312 101.02050386 -57 101 C-57.0289426 98.95320994 -57.04941044 96.90629913 -57.06640625 94.859375 C-57.07873291 93.71952148 -57.09105957 92.57966797 -57.10375977 91.40527344 C-56.43492386 69.45486601 -41.74430063 47.92447304 -29 31 C-28.36191406 30.13503906 -27.72382813 29.27007812 -27.06640625 28.37890625 C-19.05572701 18.04722538 -9.31149332 9.13694478 0 0 Z " fill="#1890C7" transform="translate(208,214)"/>
<path d="M0 0 C3.81750357 1.83349924 3.81750357 1.83349924 7.8984375 0.99609375 C9.27406604 2.28574551 10.60610143 3.62298668 11.8984375 4.99609375 C11.8984375 5.65609375 11.8984375 6.31609375 11.8984375 6.99609375 C14.66449389 8.71286928 14.66449389 8.71286928 17.8984375 9.99609375 C21.16451166 8.82861549 23.94645408 6.68564265 26.82226562 4.77124023 C41.03786406 -4.66844926 41.03786406 -4.66844926 49.8984375 -4.00390625 C48.54305321 1.68356073 45.85119477 4.63150245 41.7734375 8.55859375 C41.19247314 9.13649658 40.61150879 9.71439941 40.01293945 10.30981445 C36.89425002 13.34106804 34.0076115 15.7262771 30.0859375 17.68359375 C26.67747111 19.6013919 26.67747111 19.6013919 26.41796875 22.50390625 C26.40019766 25.0558343 26.54538441 27.47078345 26.8984375 29.99609375 C28.3834375 29.50109375 28.3834375 29.50109375 29.8984375 28.99609375 C30.3934375 32.46109375 30.3934375 32.46109375 30.8984375 35.99609375 C29.4134375 36.49109375 29.4134375 36.49109375 27.8984375 36.99609375 C28.2284375 37.98609375 28.5584375 38.97609375 28.8984375 39.99609375 C30.67927199 55.64420895 30.67927199 55.64420895 27.40625 61.8046875 C23.20612981 65.99609375 23.20612981 65.99609375 19.8984375 65.99609375 C19.72453491 64.78493896 19.72453491 64.78493896 19.54711914 63.54931641 C19.02196596 59.90604984 18.49152046 56.26357334 17.9609375 52.62109375 C17.68733398 50.71457031 17.68733398 50.71457031 17.40820312 48.76953125 C17.14233398 46.95195312 17.14233398 46.95195312 16.87109375 45.09765625 C16.70875244 43.97697754 16.54641113 42.85629883 16.37915039 41.70166016 C16.03806216 39.03880122 16.03806216 39.03880122 14.8984375 36.99609375 C14.53701795 34.66694552 14.20144225 32.33355897 13.8984375 29.99609375 C13.2384375 29.99609375 12.5784375 29.99609375 11.8984375 29.99609375 C11.75744629 30.76276367 11.61645508 31.52943359 11.47119141 32.31933594 C10.82818302 35.79611021 10.17591801 39.2710852 9.5234375 42.74609375 C9.30171875 43.95265625 9.08 45.15921875 8.8515625 46.40234375 C8.52285156 48.14257812 8.52285156 48.14257812 8.1875 49.91796875 C7.88900146 51.52043457 7.88900146 51.52043457 7.58447266 53.15527344 C6.96539592 55.71882394 6.19355979 57.71398235 4.8984375 59.99609375 C4.22264648 60.01591309 3.54685547 60.03573242 2.85058594 60.05615234 C-0.21718294 60.15152613 -3.28428248 60.2611554 -6.3515625 60.37109375 C-7.41503906 60.40203125 -8.47851562 60.43296875 -9.57421875 60.46484375 C-10.59902344 60.50351563 -11.62382812 60.5421875 -12.6796875 60.58203125 C-13.62231445 60.61345215 -14.56494141 60.64487305 -15.53613281 60.67724609 C-18.45585347 60.89533691 -18.45585347 60.89533691 -22.1015625 62.99609375 C-22.4315625 58.70609375 -22.7615625 54.41609375 -23.1015625 49.99609375 C-24.0915625 49.66609375 -25.0815625 49.33609375 -26.1015625 48.99609375 C-25.7715625 48.33609375 -25.4415625 47.67609375 -25.1015625 46.99609375 C-25.8028125 46.74859375 -26.5040625 46.50109375 -27.2265625 46.24609375 C-30.47158709 44.83521349 -33.20472987 43.01713977 -36.1015625 40.99609375 C-34.5390625 39.43359375 -34.5390625 39.43359375 -32.1015625 37.99609375 C-28.3749379 38.20312845 -25.65817203 38.71270043 -22.32421875 40.41015625 C-19.26549163 41.31074703 -19.26549163 41.31074703 -17.39160156 40.08422852 C-15.46417061 38.53819076 -13.69025007 36.90128895 -11.9140625 35.18359375 C-10.59755642 33.97395064 -9.27983744 32.76562633 -7.9609375 31.55859375 C-7.31318359 30.9553125 -6.66542969 30.35203125 -5.99804688 29.73046875 C-3.30495038 27.26757515 -0.50237031 24.97777001 2.3359375 22.68359375 C3.22152344 21.96558594 4.10710937 21.24757812 5.01953125 20.5078125 C5.63957031 20.00894531 6.25960937 19.51007813 6.8984375 18.99609375 C3.99627102 15.72702729 3.99627102 15.72702729 -0.1015625 14.49609375 C-3.1015625 13.99609375 -3.1015625 13.99609375 -4.7734375 12.29296875 C-7.94578302 9.16320505 -11.5572693 7.05216594 -15.3515625 4.74609375 C-16.46917969 4.05773437 -16.46917969 4.05773437 -17.609375 3.35546875 C-19.43707079 2.23073288 -21.26890923 1.11273365 -23.1015625 -0.00390625 C-15.67700605 -7.59530666 -8.83819364 -4.19534508 0 0 Z " fill="#020203" transform="translate(262.1015625,143.00390625)"/>
<path d="M0 0 C0.99 0.99 0.99 0.99 2 2 C-7.78279737 10.116389 -7.78279737 10.116389 -11.921875 13.12109375 C-28.33684847 25.04959131 -42.72820945 40.14279858 -54 57 C-54.7321875 58.09441406 -55.464375 59.18882812 -56.21875 60.31640625 C-63.48696677 71.7079383 -70.03563756 84.04279433 -74 97 C-74.22429687 97.70769531 -74.44859375 98.41539062 -74.6796875 99.14453125 C-77.31631786 108.87839266 -77.7218257 120.88133256 -73 130 C-69.31538302 135.85203873 -65.44335886 137.43867977 -59 139 C-57.34160126 139.37229359 -55.67798725 139.7293569 -54 140 C-54 140.33 -54 140.66 -54 141 C-61.51766623 141.41593645 -67.92145057 141.34146218 -73.9453125 136.40625 C-80.64564053 129.56574775 -82.09539955 121.69723738 -82.4375 112.375 C-82.12150536 99.81764796 -78.55657439 88.24999693 -73.26953125 76.953125 C-72.11201734 74.26056956 -71.44346029 71.88516332 -71 69 C-70.34 69 -69.68 69 -69 69 C-67.76381201 67.14874789 -66.61326246 65.24017783 -65.5 63.3125 C-58.90588029 52.223432 -50.84662901 42.38229645 -42 33 C-41.39027344 32.33742187 -40.78054687 31.67484375 -40.15234375 30.9921875 C-35.97654927 26.61247949 -31.42379568 22.81264792 -26.6875 19.0625 C-26.07624268 18.57724854 -25.46498535 18.09199707 -24.83520508 17.59204102 C-22.2409605 15.57469486 -20.14126317 14.04708772 -17 13 C-17 12.34 -17 11.68 -17 11 C-14.56866946 9.36136603 -12.15228465 7.85078666 -9.625 6.375 C-8.92632812 5.95476562 -8.22765625 5.53453125 -7.5078125 5.1015625 C-2.27140828 2 -2.27140828 2 0 2 C0 1.34 0 0.68 0 0 Z " fill="#010B14" transform="translate(228,196)"/>
<path d="M0 0 C0.99 0.66 1.98 1.32 3 2 C2.34 3.65 1.68 5.3 1 7 C1.99 7 2.98 7 4 7 C4 5.02 4 3.04 4 1 C5.98 1 7.96 1 10 1 C10 3.31 10 5.62 10 8 C10.66 8 11.32 8 12 8 C12 5.69 12 3.38 12 1 C14.3260857 0.61936779 16.66055264 0.28730055 19 0 C19.495 0.495 19.495 0.495 20 1 C22.53541298 0.90913549 25.03554784 0.7629055 27.5625 0.5625 C28.62887695 0.48418945 28.62887695 0.48418945 29.71679688 0.40429688 C31.47821999 0.27425893 33.23916173 0.13773103 35 0 C35 1.98 35 3.96 35 6 C33.35 6.33 31.7 6.66 30 7 C30 10.96 30 14.92 30 19 C28.02 19 26.04 19 24 19 C24 15.04 24 11.08 24 7 C22.35 7.33 20.7 7.66 19 8 C19.01160156 8.71027344 19.02320313 9.42054688 19.03515625 10.15234375 C19.04417969 11.07144531 19.05320312 11.99054688 19.0625 12.9375 C19.07410156 13.85402344 19.08570313 14.77054687 19.09765625 15.71484375 C19 18 19 18 18 19 C16.00041636 19.04080783 13.99954746 19.04254356 12 19 C12 17.35 12 15.7 12 14 C11.34 14 10.68 14 10 14 C10 15.65 10 17.3 10 19 C8.02 19.33 6.04 19.66 4 20 C3.67 18.68 3.34 17.36 3 16 C2.525625 16.495 2.05125 16.99 1.5625 17.5 C-2.10560943 19.64718601 -5.83575725 19.78223344 -10 19 C-11.77734375 17.4765625 -11.77734375 17.4765625 -13 16 C-13.33 16.99 -13.66 17.98 -14 19 C-15.98 19 -17.96 19 -20 19 C-20 13.06 -20 7.12 -20 1 C-18.02 1 -16.04 1 -14 1 C-13.67 2.65 -13.34 4.3 -13 6 C-12.21625 5.195625 -11.4325 4.39125 -10.625 3.5625 C-6.92682893 -0.04761937 -5.10732136 -0.31269314 0 0 Z M-7 9 C-6 12 -6 12 -6 12 Z " fill="#030303" transform="translate(247,271)"/>
<path d="M0 0 C0.99 1.98 1.98 3.96 3 6 C3.66 4.35 4.32 2.7 5 1 C7.31 1 9.62 1 12 1 C12.66 4.3 13.32 7.6 14 11 C14.99 7.7 15.98 4.4 17 1 C20.465 0.505 20.465 0.505 24 0 C26.8751252 5.90377651 28.83805848 11.53287812 30 18 C26.27349908 18.76223883 23.64797614 19.08088182 20 18 C19.67 18.33 19.34 18.66 19 19 C16.66666667 19 14.33333333 19 12 19 C11.2575 19.20625 10.515 19.4125 9.75 19.625 C9.1725 19.74875 8.595 19.8725 8 20 C7.01 19.34 6.02 18.68 5 18 C4.67 18.66 4.34 19.32 4 20 C3.01 19.67 2.02 19.34 1 19 C0.67 18.34 0.34 17.68 0 17 C-0.33 17.66 -0.66 18.32 -1 19 C-2.98 19.33 -4.96 19.66 -7 20 C-7 14.06 -7 8.12 -7 2 C-2 0 -2 0 0 0 Z " fill="#1E90C5" transform="translate(206,292)"/>
<path d="M0 0 C0.99 0.33 1.98 0.66 3 1 C2.02679301 5.48048331 1.04544411 9.95914365 0.0625 14.4375 C-0.21529297 15.71689453 -0.49308594 16.99628906 -0.77929688 18.31445312 C-1.04677734 19.52939453 -1.31425781 20.74433594 -1.58984375 21.99609375 C-1.83597412 23.12200928 -2.08210449 24.2479248 -2.33569336 25.40795898 C-3 28 -3 28 -4 29 C-5.63472882 29.08700342 -7.27314055 29.10701063 -8.91015625 29.09765625 C-9.89951172 29.09443359 -10.88886719 29.09121094 -11.90820312 29.08789062 C-12.94912109 29.07951172 -13.99003906 29.07113281 -15.0625 29.0625 C-16.10728516 29.05798828 -17.15207031 29.05347656 -18.22851562 29.04882812 C-20.8190666 29.03699913 -23.40950559 29.02051689 -26 29 C-27.19782663 24.07393797 -27.69248346 19.44793994 -25 15 C-18.58526595 9.56821108 -10.79540903 5.88798263 -3.30078125 2.17651367 C-1.09468699 1.19723269 -1.09468699 1.19723269 0 0 Z " fill="#1890C8" transform="translate(271,174)"/>
<path d="M0 0 C0.33 0.33 0.66 0.66 1 1 C2.98 1 4.96 1 7 1 C7 4.96 7 8.92 7 13 C8.98 12.67 10.96 12.34 13 12 C13 13.98 13 15.96 13 18 C10.35541621 19.32229189 8.32238699 19.09677194 5.375 19.0625 C4.37210938 19.05347656 3.36921875 19.04445313 2.3359375 19.03515625 C1.56507813 19.02355469 0.79421875 19.01195312 0 19 C-0.33 17.02 -0.66 15.04 -1 13 C-2.98 13 -4.96 13 -7 13 C-7 14.98 -7 16.96 -7 19 C-8.98 19 -10.96 19 -13 19 C-13 13.06 -13 7.12 -13 1 C-8.40940644 0.23490107 -4.59327084 -0.18012827 0 0 Z M-7 6 C-7 6.33 -7 6.66 -7 7 C-4.69 7 -2.38 7 0 7 C0 6.67 0 6.34 0 6 C-2.31 6 -4.62 6 -7 6 Z " fill="#040405" transform="translate(213,271)"/>
<path d="M0 0 C1.15025658 3.34291853 0.90265702 4.97451945 -0.58203125 8.15234375 C-0.93716797 8.92900391 -1.29230469 9.70566406 -1.65820312 10.50585938 C-2.03912109 11.30830078 -2.42003906 12.11074219 -2.8125 12.9375 C-3.54882126 14.52965016 -4.2845158 16.12209034 -5.01953125 17.71484375 C-5.36580566 18.45718262 -5.71208008 19.19952148 -6.06884766 19.96435547 C-7.12781269 22.27941851 -8.09195904 24.62179749 -9 27 C-9.66 27 -10.32 27 -11 27 C-10.67 27.66 -10.34 28.32 -10 29 C-9.8829747 30.56100156 -9.82125243 32.12635526 -9.7890625 33.69140625 C-9.76070312 34.63693359 -9.73234375 35.58246094 -9.703125 36.55664062 C-9.65175682 38.53303141 -9.60728508 40.50961564 -9.5703125 42.48632812 C-9.31732582 50.29202141 -8.06796219 56.71558946 -3.875 63.375 C0.88922087 67.72494079 6.71755784 68.98670288 13 70 C13 70.33 13 70.66 13 71 C5.48233377 71.41593645 -0.92145057 71.34146218 -6.9453125 66.40625 C-13.64564053 59.56574775 -15.09539955 51.69723738 -15.4375 42.375 C-15.11529521 29.57086171 -11.7238492 15.02711268 -5 4 C-2.875 3.3125 -2.875 3.3125 -1 3 C-0.67 2.01 -0.34 1.02 0 0 Z " fill="#040406" transform="translate(161,266)"/>
<path d="M0 0 C0.433125 0.61875 0.86625 1.2375 1.3125 1.875 C2.99740483 4.2197245 2.99740483 4.2197245 6 6 C4.71186658 6.83878455 3.41936744 7.67086783 2.125 8.5 C1.40570313 8.9640625 0.68640625 9.428125 -0.0546875 9.90625 C-2 11 -2 11 -4 11 C-3.94199219 11.80824219 -3.88398438 12.61648437 -3.82421875 13.44921875 C-3.46128603 22.04553938 -3.46128603 22.04553938 -5.078125 24.91015625 C-8.2130102 28 -8.2130102 28 -10 28 C-10.33 23.71 -10.66 19.42 -11 15 C-11.99 14.67 -12.98 14.34 -14 14 C-13.67 13.34 -13.34 12.68 -13 12 C-13.70125 11.7525 -14.4025 11.505 -15.125 11.25 C-18.37002459 9.83911974 -21.10316737 8.02104602 -24 6 C-22.4375 4.4375 -22.4375 4.4375 -20 3 C-16.2028896 3.21095058 -13.43484533 3.79163661 -10 5.4375 C-7.05843766 6.33968413 -7.05843766 6.33968413 -5.0703125 4.79296875 C-3.28877329 3.26542409 -1.62008483 1.69677524 0 0 Z " fill="#01050B" transform="translate(250,178)"/>
<path d="M0 0 C13.60385462 -0.11580095 27.20759217 -0.2046687 40.8118391 -0.25906086 C47.128724 -0.28516517 53.44527194 -0.32057964 59.76196289 -0.37719727 C65.85684335 -0.43148549 71.9513995 -0.46141425 78.04650307 -0.47438622 C80.37297993 -0.48363169 82.69943885 -0.50168583 85.02577782 -0.52865028 C88.2821438 -0.5648968 91.53716623 -0.56994699 94.79370117 -0.56762695 C95.75755234 -0.58560333 96.7214035 -0.60357971 97.71446228 -0.62210083 C105.00428428 -0.56582548 105.00428428 -0.56582548 108.13789368 2.53547668 C109.05963631 3.75541573 109.05963631 3.75541573 110 5 C108.35 6.32 106.7 7.64 105 9 C104.505 7.515 104.505 7.515 104 6 C103.34 6 102.68 6 102 6 C102 5.01 102 4.02 102 3 C70.32 3 38.64 3 6 3 C6.33 5.31 6.66 7.62 7 10 C3.55197024 6.82418312 1.58003686 4.39309313 0 0 Z " fill="#318BB5" transform="translate(160,157)"/>
<path d="M0 0 C0 0.66 0 1.32 0 2 C0.495 2.37125 0.99 2.7425 1.5 3.125 C3.93673911 6.17092388 3.18748717 9.18776094 3 13 C-1.29 13 -5.58 13 -10 13 C-9.34 11.02 -8.68 9.04 -8 7 C-7.73788562 5.38280371 -7.52332474 3.75657211 -7.375 2.125 C-7.189375 0.083125 -7.189375 0.083125 -7 -2 C-11.95 -2 -16.9 -2 -22 -2 C-22.28875 -0.205625 -22.5775 1.58875 -22.875 3.4375 C-23.74487611 8.67539689 -24.79368847 13.83009343 -26 19 C-26.66 19 -27.32 19 -28 19 C-27.7834375 18.071875 -27.7834375 18.071875 -27.5625 17.125 C-26.77943337 12.77462983 -26.40153341 8.39978093 -26 4 C-25.34 4 -24.68 4 -24 4 C-24.020625 3.030625 -24.04125 2.06125 -24.0625 1.0625 C-24 -2 -24 -2 -23 -3 C-14.3820017 -4.27150795 -7.4651261 -5.0275339 0 0 Z " fill="#248BBA" transform="translate(237,190)"/>
<path d="M0 0 C1.3582089 3.73960184 0.62928896 6.40529248 -0.375 10.1875 C-0.65085938 11.25355469 -0.92671875 12.31960938 -1.2109375 13.41796875 C-2 16 -2 16 -3 17 C-3.66 21.62 -4.32 26.24 -5 31 C6.55 31 18.1 31 30 31 C30.33 29.68 30.66 28.36 31 27 C31.042721 28.66611905 31.04063832 30.33382885 31 32 C30 33 30 33 26.58178711 33.11352539 C25.06363012 33.11336628 23.54546771 33.10767226 22.02734375 33.09765625 C21.22970108 33.0962413 20.43205841 33.09482635 19.61024475 33.09336853 C17.05262565 33.08775316 14.49509282 33.07519812 11.9375 33.0625 C10.20768355 33.05748698 8.47786574 33.05292373 6.74804688 33.04882812 C2.49866447 33.03777875 -1.75065312 33.02050386 -6 33 C-6.03581522 30.96497521 -6.06106418 28.92976318 -6.08203125 26.89453125 C-6.0972583 25.76120361 -6.11248535 24.62787598 -6.12817383 23.46020508 C-5.82493283 15.27385329 -3.04338565 7.53600255 0 0 Z " fill="#3990B7" transform="translate(157,282)"/>
<path d="M0 0 C0.45375 0.495 0.9075 0.99 1.375 1.5 C2.87635519 3.22609337 2.87635519 3.22609337 5 3 C5 3.66 5 4.32 5 5 C5.66 5 6.32 5 7 5 C7 3.68 7 2.36 7 1 C8.32 1.33 9.64 1.66 11 2 C10.57589844 2.58265625 10.15179688 3.1653125 9.71484375 3.765625 C5.56388387 9.56784584 1.87667907 15.50653996 -1.6171875 21.7265625 C-2.07351562 22.47679687 -2.52984375 23.22703125 -3 24 C-3.33 24 -3.66 24 -4 24 C-3.52087184 15.75569133 -2.02214499 7.99955473 0 0 Z " fill="#1F8BBD" transform="translate(162,243)"/>
<path d="M0 0 C0.33 0.66 0.66 1.32 1 2 C2.32 1.67 3.64 1.34 5 1 C3.37221434 2.72643933 1.71332336 4.3619389 0 6 C-0.9075 6.928125 -1.815 7.85625 -2.75 8.8125 C-8.52002935 12.96173459 -17.26996281 11.34066555 -24 11 C-24.0825 12.134375 -24.165 13.26875 -24.25 14.4375 C-24.79668753 19.37353379 -25.83172462 24.1650123 -26.9375 29 C-27.10733398 29.76626709 -27.27716797 30.53253418 -27.45214844 31.32202148 C-27.90165151 33.23155335 -28.44362619 35.11882666 -29 37 C-29.99 37.495 -29.99 37.495 -31 38 C-30.67 34.37 -30.34 30.74 -30 27 C-29.34 27 -28.68 27 -28 27 C-28.020625 25.865625 -28.04125 24.73125 -28.0625 23.5625 C-28 20 -28 20 -27 19 C-26.71898054 16.68047431 -26.55217375 14.36114486 -26.37890625 12.03125 C-26.25386719 11.3609375 -26.12882813 10.690625 -26 10 C-22.69005287 8.34502644 -19.00877 8.89915665 -15.375 8.9375 C-14.57320312 8.94201172 -13.77140625 8.94652344 -12.9453125 8.95117188 C-10.96350994 8.96296832 -8.98174567 8.98090395 -7 9 C-7 7.35 -7 5.7 -7 4 C-5.02 3.67 -3.04 3.34 -1 3 C-0.67 2.01 -0.34 1.02 0 0 Z " fill="#338DB3" transform="translate(225,240)"/>
<path d="M0 0 C0.69937202 1.4317616 1.38412718 2.87067032 2.0625 4.3125 C2.44535156 5.11300781 2.82820312 5.91351563 3.22265625 6.73828125 C4 9 4 9 3 12 C2.34 10.35 1.68 8.7 1 7 C-1.31 6.67 -3.62 6.34 -6 6 C-6.99 9.96 -7.98 13.92 -9 18 C-7.68 18.33 -6.36 18.66 -5 19 C-6.98 19 -8.96 19 -11 19 C-12.09506492 15.71480525 -12.09960608 13.26336585 -12.0625 9.8125 C-12.05347656 8.72582031 -12.04445312 7.63914062 -12.03515625 6.51953125 C-12.02355469 5.68808594 -12.01195312 4.85664063 -12 4 C-11.67 4 -11.34 4 -11 4 C-10.67 6.31 -10.34 8.62 -10 11 C-9.80664062 10.28972656 -9.61328125 9.57945312 -9.4140625 8.84765625 C-9.15367187 7.92855469 -8.89328125 7.00945312 -8.625 6.0625 C-8.36976563 5.14597656 -8.11453125 4.22945313 -7.8515625 3.28515625 C-6.35907045 -0.71992563 -3.84123925 -0.10108524 0 0 Z " fill="#2E8DB8" transform="translate(230,292)"/>
<path d="M0 0 C0.33 1.32 0.66 2.64 1 4 C-1.475 3.01 -1.475 3.01 -4 2 C-3.484375 3.051875 -2.96875 4.10375 -2.4375 5.1875 C-0.96983895 8.58018624 -1.05130974 10.39497701 -2 14 C-1.62277985 16.72502965 -1.62277985 16.72502965 -1 19 C-2.98 19.33 -4.96 19.66 -7 20 C-7 14.06 -7 8.12 -7 2 C-2 0 -2 0 0 0 Z " fill="#2291BF" transform="translate(206,292)"/>
<path d="M0 0 C0.99 0.33 1.98 0.66 3 1 C1.68 6.94 0.36 12.88 -1 19 C-1.33 19 -1.66 19 -2 19 C-2.02708567 17.39592672 -2.04643483 15.7917215 -2.0625 14.1875 C-2.07410156 13.29417969 -2.08570313 12.40085938 -2.09765625 11.48046875 C-2 9 -2 9 -1 6 C-2.31471568 6.28151087 -3.62675767 6.57553339 -4.9375 6.875 C-5.66839844 7.03742188 -6.39929688 7.19984375 -7.15234375 7.3671875 C-9.20700294 7.82961523 -9.20700294 7.82961523 -10 10 C-11.33333333 10.33333333 -12.66666667 10.66666667 -14 11 C-14.33 11.66 -14.66 12.32 -15 13 C-16.65 13 -18.3 13 -20 13 C-16.14537624 9.72651227 -12.15151995 7.24612047 -7.75 4.8125 C-3.62784941 2.73745676 -3.62784941 2.73745676 0 0 Z " fill="#2588B5" transform="translate(271,174)"/>
<path d="M0 0 C0.66 0.33 1.32 0.66 2 1 C2 4 2 4 0.80664062 5.53393555 C0.26201172 6.062854 -0.28261719 6.59177246 -0.84375 7.13671875 C-1.72353516 8.00200195 -1.72353516 8.00200195 -2.62109375 8.88476562 C-3.24113281 9.47966797 -3.86117187 10.07457031 -4.5 10.6875 C-5.12003906 11.29400391 -5.74007812 11.90050781 -6.37890625 12.52539062 C-7.91264707 14.02373743 -9.45548198 15.51276493 -11 17 C-11.33 16.01 -11.66 15.02 -12 14 C-11.67 13.34 -11.34 12.68 -11 12 C-11.66 11.67 -12.32 11.34 -13 11 C-8.71 7.37 -4.42 3.74 0 0 Z " fill="#001321" transform="translate(205,212)"/>
<path d="M0 0 C2.31 0 4.62 0 7 0 C7 5.94 7 11.88 7 18 C6.34 18 5.68 18 5 18 C5 14.37 5 10.74 5 7 C4.34 6.67 3.68 6.34 3 6 C3 5.34 3 4.68 3 4 C1.7018576 5.1490712 1.7018576 5.1490712 1 8 C-0.65 7.67 -2.3 7.34 -4 7 C-3.67 5.68 -3.34 4.36 -3 3 C-2.67 3.66 -2.34 4.32 -2 5 C-1.34 3.35 -0.68 1.7 0 0 Z " fill="#2391BD" transform="translate(211,293)"/>
<path d="M0 0 C2.31 0 4.62 0 7 0 C5.8986724 2.2873727 4.73709056 4.41458797 3.375 6.5625 C1.75433941 8.96905979 1.75433941 8.96905979 2 12 C0.35 12 -1.3 12 -3 12 C-3.34833144 7.12335991 -2.41685712 4.22949995 0 0 Z " fill="#1893CB" transform="translate(224,298)"/>
<path d="M0 0 C0.66 0.33 1.32 0.66 2 1 C0.515 2.485 0.515 2.485 -1 4 C-1.33 7.3 -1.66 10.6 -2 14 C8.395 13.505 8.395 13.505 19 13 C18.67 13.99 18.34 14.98 18 16 C10.74 16 3.48 16 -4 16 C-3.51171875 5.2578125 -3.51171875 5.2578125 -3 2 C-2.01 1.34 -1.02 0.68 0 0 Z " fill="#3388AE" transform="translate(249,187)"/>
<path d="M0 0 C3.31862574 0.82965644 5.01980523 1.59322081 7.5 3.875 C5.52 4.205 3.54 4.535 1.5 4.875 C1.83 6.195 2.16 7.515 2.5 8.875 C-0.8 6.895 -4.1 4.915 -7.5 2.875 C-3.5 -0.125 -3.5 -0.125 0 0 Z " fill="#011525" transform="translate(233.5,181.125)"/>
<path d="M0 0 C14.52 0 29.04 0 44 0 C40.54602565 3.45397435 39.30872286 4.56375905 35 6 C35.33 5.01 35.66 4.02 36 3 C36.66 2.67 37.32 2.34 38 2 C25.46 1.67 12.92 1.34 0 1 C0 0.67 0 0.34 0 0 Z " fill="#2290B8" transform="translate(215,220)"/>
<path d="M0 0 C0.66 0 1.32 0 2 0 C0.62364781 4.35954619 -1.05633246 8.4605833 -2.9375 12.625 C-5.72507011 18.93050053 -7.59202848 25.25655748 -9 32 C-9.33 32 -9.66 32 -10 32 C-10.33 29.03 -10.66 26.06 -11 23 C-10.34 22.67 -9.68 22.34 -9 22 C-7.9427686 19.44674199 -6.97802908 16.91610788 -6.0625 14.3125 C-4.30316327 9.36745892 -2.45665534 4.65664519 0 0 Z " fill="#011325" transform="translate(161,270)"/>
<path d="M0 0 C1.3582089 3.73960184 0.62928896 6.40529248 -0.375 10.1875 C-0.65085938 11.25355469 -0.92671875 12.31960938 -1.2109375 13.41796875 C-2 16 -2 16 -3 17 C-3.28593333 20.5900518 -3.44910171 24.18014845 -3.62109375 27.77734375 C-4 31 -4 31 -6 33 C-6.51977175 21.06450045 -4.45312048 11.02677453 0 0 Z " fill="#2C84AD" transform="translate(157,282)"/>
<path d="M0 0 C1.21065165 3.63195496 0.62784815 5.06531629 -0.4375 8.6875 C-0.72496094 9.68136719 -1.01242188 10.67523438 -1.30859375 11.69921875 C-1.53675781 12.45847656 -1.76492187 13.21773438 -2 14 C-2.66 14 -3.32 14 -4 14 C-4.33 14.99 -4.66 15.98 -5 17 C-5.66 17 -6.32 17 -7 17 C-7.33 17.99 -7.66 18.98 -8 20 C-8.33 19.34 -8.66 18.68 -9 18 C-7.78112706 15.26784036 -6.50853428 12.64676124 -5.125 10 C-4.74730469 9.26265625 -4.36960938 8.5253125 -3.98046875 7.765625 C-3.27846988 6.39660228 -2.57321399 5.02924167 -1.86376953 3.6640625 C-1.23247521 2.44786632 -0.61280758 1.22561516 0 0 Z " fill="#2286AF" transform="translate(167,262)"/>
<path d="M0 0 C1.32 0.33 2.64 0.66 4 1 C4.33 2.65 4.66 4.3 5 6 C6.32 6.33 7.64 6.66 9 7 C7.35 8.65 5.7 10.3 4 12 C4 11.34 4 10.68 4 10 C3.34 10 2.68 10 2 10 C1.7834375 8.63875 1.7834375 8.63875 1.5625 7.25 C1.13590527 4.78523044 0.64925779 2.41152893 0 0 Z " fill="#1591CB" transform="translate(202,294)"/>
<path d="M0 0 C0.99 0.33 1.98 0.66 3 1 C3 1.66 3 2.32 3 3 C3.495 3.37125 3.99 3.7425 4.5 4.125 C6.93673911 7.17092388 6.18748717 10.18776094 6 14 C1.71 14 -2.58 14 -7 14 C-6.67 13.34 -6.34 12.68 -6 12 C-2.37 12.33 1.26 12.66 5 13 C5 12.01 5 11.02 5 10 C4.34 10 3.68 10 3 10 C0.4606772 6.58168085 -0.3636198 4.24223102 0 0 Z " fill="#287496" transform="translate(234,189)"/>
<path d="M0 0 C0.33 0 0.66 0 1 0 C1.19392201 5.52677733 0.7479503 9.75614911 -1 15 C-0.34 15 0.32 15 1 15 C-0.25566905 18.47723736 -1.73343156 21.09382458 -4 24 C-3.52087184 15.75569133 -2.02214499 7.99955473 0 0 Z " fill="#2B8CB5" transform="translate(162,243)"/>
<path d="M0 0 C-1.66605983 3.93795959 -4.01879003 6.95103526 -7 10 C-10.3125 10.875 -10.3125 10.875 -13 11 C-4.30232558 0 -4.30232558 0 0 0 Z " fill="#010D1A" transform="translate(267,165)"/>
<path d="M0 0 C0 1.65 0 3.3 0 5 C1.32 5 2.64 5 4 5 C4 3.35 4 1.7 4 0 C6 3 6 3 6 6 C1.58937864 7.0257259 -0.92630576 7.03684712 -5 5 C-4.625 3.0625 -4.625 3.0625 -4 1 C-2 0 -2 0 0 0 Z " fill="#2D90B7" transform="translate(230,304)"/>
<path d="M0 0 C0.33 0.66 0.66 1.32 1 2 C2.32 1.67 3.64 1.34 5 1 C1.89973691 4.27742098 -0.97098894 6.93104837 -5 9 C-5.66 9 -6.32 9 -7 9 C-7 7.35 -7 5.7 -7 4 C-5.02 3.67 -3.04 3.34 -1 3 C-0.67 2.01 -0.34 1.02 0 0 Z " fill="#208FC1" transform="translate(225,240)"/>
<path d="M0 0 C0.33 0.66 0.66 1.32 1 2 C0.38125 2.721875 -0.2375 3.44375 -0.875 4.1875 C-2.83666353 6.78381938 -3.95316 8.94671666 -5 12 C-5.99 12 -6.98 12 -8 12 C-8 13.32 -8 14.64 -8 16 C-8.99 16 -9.98 16 -11 16 C-9.55049595 11.64352355 -7.32252888 8.68242711 -4.375 5.1875 C-3.55773437 4.21167969 -2.74046875 3.23585937 -1.8984375 2.23046875 C-1.27195313 1.49441406 -0.64546875 0.75835937 0 0 Z " fill="#2B84AA" transform="translate(184,239)"/>
<path d="M0 0 C1.65 0 3.3 0 5 0 C0.375 4.875 0.375 4.875 -3 6 C-5.26171875 5.22265625 -5.26171875 5.22265625 -7.6875 4.0625 C-8.89986328 3.49208984 -8.89986328 3.49208984 -10.13671875 2.91015625 C-10.75160156 2.60980469 -11.36648437 2.30945313 -12 2 C-7.47907032 0.54393481 -4.48351204 1.72967159 0 3 C0 2.01 0 1.02 0 0 Z " fill="#2383A9" transform="translate(244,179)"/>
<path d="M0 0 C2.125 0.375 2.125 0.375 4 1 C4.5625 2.9375 4.5625 2.9375 5 5 C4 6 4 6 1.4375 6.0625 C0.2309375 6.0315625 0.2309375 6.0315625 -1 6 C-1.625 4.125 -1.625 4.125 -2 2 C-1.34 1.34 -0.68 0.68 0 0 Z " fill="#318BB6" transform="translate(193,305)"/>
<path d="M0 0 C0.33 0.99 0.66 1.98 1 3 C1.66 3.33 2.32 3.66 3 4 C0.69 5.98 -1.62 7.96 -4 10 C-4.33 9.01 -4.66 8.02 -5 7 C-3.58511552 4.23760649 -2.19636905 2.19636905 0 0 Z " fill="#1F8CBF" transform="translate(183,226)"/>
<path d="M0 0 C-0.66 2.97 -1.32 5.94 -2 9 C-2.33 9 -2.66 9 -3 9 C-3 6.69 -3 4.38 -3 2 C-3.5775 2.515625 -4.155 3.03125 -4.75 3.5625 C-7 5 -7 5 -9.140625 4.58984375 C-9.75421875 4.39519531 -10.3678125 4.20054687 -11 4 C-9.73760288 3.13341385 -8.46472499 2.28207941 -7.1875 1.4375 C-6.47980469 0.96183594 -5.77210938 0.48617187 -5.04296875 -0.00390625 C-3 -1 -3 -1 0 0 Z " fill="#3482A5" transform="translate(274,175)"/>
<path d="M0 0 C0.33 0 0.66 0 1 0 C1.76681614 9.73004484 1.76681614 9.73004484 -0.11328125 12.84375 C-1.5 14.1875 -1.5 14.1875 -4 16 C-4.33 15.01 -4.66 14.02 -5 13 C-4.34 13 -3.68 13 -3 13 C-1.32889958 10.03821227 -0.67317248 7.62928808 -0.375 4.25 C-0.26285156 3.05117187 -0.26285156 3.05117187 -0.1484375 1.828125 C-0.09945312 1.22484375 -0.05046875 0.6215625 0 0 Z " fill="#02131D" transform="translate(245,190)"/>
<path d="M0 0 C0.66 0 1.32 0 2 0 C2 0.66 2 1.32 2 2 C2.99 1.67 3.98 1.34 5 1 C5.69965443 2.26418246 6.38434763 3.53665402 7.0625 4.8125 C7.63677734 5.87404297 7.63677734 5.87404297 8.22265625 6.95703125 C9 9 9 9 8 12 C6.66382103 10.18959679 5.33112616 8.3766216 4 6.5625 C3.2575 5.55316406 2.515 4.54382813 1.75 3.50390625 C0 1 0 1 0 0 Z " fill="#2C8BB2" transform="translate(167,167)"/>
<path d="M0 0 C0.66 0 1.32 0 2 0 C2.33 1.32 2.66 2.64 3 4 C1.25 5.5625 1.25 5.5625 -1 7 C-3.25 6.6875 -3.25 6.6875 -5 6 C-3.625 4 -3.625 4 -2 2 C-1.34 2 -0.68 2 0 2 C0 1.34 0 0.68 0 0 Z " fill="#020A14" transform="translate(211,207)"/>
<path d="M0 0 C1.65 0 3.3 0 5 0 C5.33 0.66 5.66 1.32 6 2 C5.67 2.99 5.34 3.98 5 5 C3.35 4.67 1.7 4.34 0 4 C0 2.68 0 1.36 0 0 Z " fill="#010C13" transform="translate(230,181)"/>
<path d="M0 0 C-3.11016455 3.28788824 -6.01618925 5.83735988 -10 8 C-7.95662621 2.18424383 -6.49689233 -0.52677505 0 0 Z " fill="#2884AD" transform="translate(261,169)"/>
<path d="M0 0 C0.33 0.66 0.66 1.32 1 2 C1.99 2.33 2.98 2.66 4 3 C1.69 4.65 -0.62 6.3 -3 8 C-3.33 7.01 -3.66 6.02 -4 5 C-3.34 5 -2.68 5 -2 5 C-1.34 3.35 -0.68 1.7 0 0 Z " fill="#298FBA" transform="translate(245,225)"/>
<path d="M0 0 C0.66 0 1.32 0 2 0 C3.15837626 4.05431692 2.83691257 6.21812119 1 10 C0.67 10 0.34 10 0 10 C-0.19412181 8.52168779 -0.38012131 7.04230684 -0.5625 5.5625 C-0.66691406 4.73878906 -0.77132812 3.91507812 -0.87890625 3.06640625 C-0.91886719 2.38449219 -0.95882812 1.70257813 -1 1 C-0.67 0.67 -0.34 0.34 0 0 Z " fill="#1695D0" transform="translate(214,302)"/>
<path d="M0 0 C0.66 0 1.32 0 2 0 C2 3.63 2 7.26 2 11 C-1 8 -1 8 -1.07421875 5.95703125 C-0.71614583 3.97135417 -0.35807292 1.98567708 0 0 Z " fill="#011829" transform="translate(149,305)"/>
<path d="M0 0 C1.60461448 4.01153621 0.45438973 7.07314774 -1 11 C-1.99 11.66 -2.98 12.32 -4 13 C-3.52140759 11.39566191 -3.04210442 9.79153584 -2.5625 8.1875 C-2.29566406 7.29417969 -2.02882812 6.40085937 -1.75390625 5.48046875 C-1.19612127 3.64526945 -0.60655425 1.81966274 0 0 Z " fill="#267CA6" transform="translate(157,282)"/>
<path d="M0 0 C0.33 1.32 0.66 2.64 1 4 C-0.65 3.67 -2.3 3.34 -4 3 C-4.33 3.99 -4.66 4.98 -5 6 C-5.66 6 -6.32 6 -7 6 C-6.67 4.35 -6.34 2.7 -6 1 C-3.92446352 0.4465236 -2.15634036 0 0 0 Z " fill="#3786A9" transform="translate(206,292)"/>
<path d="M0 0 C2 3 2 3 1.625 5.1875 C1.41875 5.785625 1.2125 6.38375 1 7 C0.01 6.34 -0.98 5.68 -2 5 C-2 5.66 -2 6.32 -2 7 C-2.66 6.67 -3.32 6.34 -4 6 C-2.68 4.02 -1.36 2.04 0 0 Z " fill="#1F89B5" transform="translate(172,255)"/>
<path d="M0 0 C1 3 1 3 0 6 C-1.65 6.33 -3.3 6.66 -5 7 C-3.70700306 4.11562221 -2.34058637 2.12780579 0 0 Z " fill="#1F83B0" transform="translate(190,232)"/>
<path d="M0 0 C0.66 0.66 1.32 1.32 2 2 C-2.39453125 6.00390625 -2.39453125 6.00390625 -4 7 C-4.99 6.67 -5.98 6.34 -7 6 C-2.25 2 -2.25 2 0 2 C0 1.34 0 0.68 0 0 Z " fill="#0C2737" transform="translate(228,196)"/>
<path d="M0 0 C0.33 0.66 0.66 1.32 1 2 C2.32 1.67 3.64 1.34 5 1 C0.375 5.875 0.375 5.875 -3 7 C-2.690625 6.401875 -2.38125 5.80375 -2.0625 5.1875 C-0.89790296 2.91043228 -0.89790296 2.91043228 0 0 Z " fill="#368EB4" transform="translate(225,240)"/>
<path d="M0 0 C0.33 0 0.66 0 1 0 C1.6875 3.25 1.6875 3.25 2 7 C1.01 8.32 0.02 9.64 -1 11 C-0.67 7.37 -0.34 3.74 0 0 Z " fill="#317EA7" transform="translate(159,256)"/>
<path d="M0 0 C0.33 0.99 0.66 1.98 1 3 C-0.32 3.33 -1.64 3.66 -3 4 C-3 5.32 -3 6.64 -3 8 C-3.99 8 -4.98 8 -6 8 C-5.1875 5.5625 -5.1875 5.5625 -4 3 C-3.01 2.67 -2.02 2.34 -1 2 C-0.67 1.34 -0.34 0.68 0 0 Z " fill="#2386B8" transform="translate(179,247)"/>
</svg>
